<?xml version="1.0" standalone="no"?>
<!DOCTYPE svg PUBLIC "-//W3C//DTD SVG 20010904//EN"
 "http://www.w3.org/TR/2001/REC-SVG-20010904/DTD/svg10.dtd">
<svg version="1.0" xmlns="http://www.w3.org/2000/svg"
 width="400.000000pt" height="400.000000pt" viewBox="0 0 400.000000 400.000000"
 preserveAspectRatio="xMidYMid meet">
<metadata>
Created by potrace 1.13, written by Peter Selinger 2001-2015
</metadata>
<g transform="translate(0.000000,400.000000) scale(0.100000,-0.100000)"
fill="#000000" stroke="none">
<path d="M1885 2600 c-4 -6 -29 -22 -56 -36 -57 -28 -59 -49 -6 -49 20 0 42
-6 48 -12 11 -11 8 -13 -14 -13 -15 0 -27 -5 -27 -10 0 -6 -11 -28 -24 -49
-14 -21 -26 -56 -28 -76 -3 -33 -6 -39 -29 -39 -30 -2 -97 -54 -98 -76 -1 -9
-6 -21 -13 -28 -7 -7 -17 -42 -23 -79 -13 -82 -27 -89 -91 -41 -67 48 -184
160 -184 175 0 7 11 13 26 13 14 0 23 4 19 10 -3 6 -15 10 -26 10 -10 0 -19 3
-19 8 0 14 -61 34 -88 29 -44 -9 -102 -31 -102 -39 0 -5 11 -8 25 -8 39 0 46
-46 12 -76 -14 -12 -31 -41 -37 -65 -28 -107 -40 -158 -51 -221 -13 -78 -24
-86 -97 -69 -96 22 -477 52 -504 39 -10 -5 -18 -3 -20 4 -3 9 -68 12 -241 13
l-237 2 0 -64 0 -63 29 0 c32 0 51 -18 32 -30 -7 -4 -23 -5 -37 -2 l-24 4 0
-881 0 -881 2000 0 2000 0 0 305 c0 346 0 346 -71 339 -39 -4 -50 6 -26 23 13
10 37 9 75 -3 l22 -6 0 217 0 217 -37 -5 c-21 -3 -30 -3 -20 -1 9 3 17 9 17
13 0 16 -13 20 -31 11 -22 -12 -29 -2 -18 25 6 17 8 17 8 3 1 -24 21 -23 21 1
0 12 12 25 30 33 30 13 30 13 30 97 0 65 -3 81 -12 73 -7 -5 -37 -13 -66 -17
-29 -4 -59 -13 -67 -21 -15 -15 -96 -19 -220 -11 -38 2 -77 1 -85 -3 -8 -5
-52 -11 -97 -15 l-81 -6 -22 29 c-25 34 -47 32 -61 -5 -10 -26 -14 -26 -94 -9
-16 4 -96 26 -145 41 -25 7 -73 19 -107 25 -35 7 -63 15 -63 19 0 8 -63 36
-115 52 -29 9 -40 9 -43 0 -5 -15 -47 -14 -71 1 -15 9 -28 9 -55 1 -28 -9 -38
-8 -47 3 -6 8 -10 14 -8 15 27 6 111 4 115 -3 7 -10 44 -11 44 0 0 14 -104 42
-130 35 -23 -6 -24 -5 -10 12 14 17 13 18 -17 12 -23 -4 -33 -2 -37 9 -3 8
-10 13 -15 9 -5 -3 -12 -1 -16 5 -3 5 -15 10 -26 10 -11 0 -17 -4 -14 -10 3
-5 15 -10 26 -10 21 0 26 -15 8 -25 -6 -5 -4 -12 8 -20 28 -21 9 -28 -38 -14
-24 7 -68 13 -98 14 -46 2 -58 6 -77 30 l-22 28 -13 -22 c-16 -25 -28 -27 -44
-5 -12 17 -105 27 -105 12 0 -5 -5 -8 -10 -8 -12 0 -2 176 11 202 5 9 9 30 9
47 0 16 5 33 10 36 10 6 6 104 -6 162 -3 16 5 31 26 49 24 22 30 36 30 66 0
25 -5 41 -15 44 -8 4 -15 12 -15 20 0 8 -18 33 -40 55 -31 33 -39 47 -33 63
10 30 6 137 -7 184 -8 34 -16 43 -45 52 -50 16 -45 51 8 64 30 7 37 26 10 26
-10 0 -33 9 -51 20 -35 22 -67 26 -77 10z m-359 -614 c11 -8 31 -16 44 -18 21
-2 26 -10 30 -43 8 -55 32 -135 42 -135 4 0 5 7 2 15 -4 10 0 15 11 15 13 0
16 -6 11 -22 -3 -13 -6 -32 -6 -43 0 -12 -3 -16 -8 -9 -4 6 -38 14 -75 16 -38
3 -74 11 -79 16 -6 6 -13 44 -16 84 -2 40 -8 81 -13 90 -21 40 17 62 57 34z
m1374 -934 c0 -11 46 -32 69 -32 10 0 24 -7 31 -15 16 -19 30 -19 30 -1 0 11
8 11 45 -3 25 -9 45 -21 45 -27 0 -7 17 -14 38 -17 59 -8 168 -52 196 -80 32
-32 32 -37 1 -37 -14 0 -25 5 -25 10 0 6 -17 10 -37 10 -28 0 -34 3 -23 10 13
8 13 10 -1 10 -9 0 -22 7 -29 15 -7 8 -29 15 -49 15 -48 0 -97 15 -118 35 -9
9 -24 14 -35 12 -11 -3 -29 4 -43 18 -20 18 -96 41 -114 35 -11 -4 -17 25 -8
36 14 15 27 18 27 6z"/>
</g>
</svg>
